# xmcd CD database file
#
# Track frame offsets:
#	150
#	25339
#	37124
#	56130
#	62971
#	86370
#	98792
#	172560
#	203275
#	258772
#	284359
#	311001
#
# Disc length: 4437 seconds
#
# Revision: 0
# Processed by: cddbd v1.5.1PL0 Copyright (c) Steve Scherf et al.
# Submitted via: CDex 1.51
#
DISCID=9911530c
DTITLE=Shamall - The Book Genesis 2
DYEAR=1900
DGENRE=New Age
TTITLE0=Blue Lavender Moon Part 1
TTITLE1=Blue Lavender Moon Part 2
TTITLE2=Light up the Dark
TTITLE3=The other Side
TTITLE4=Operation Brainstorm
TTITLE5=Blue Lavender Moon Part 3
TTITLE6=Song for a Dreamer with an ambient Heart
TTITLE7=Invisible View
TTITLE8=Ice and Fire
TTITLE9=Cold Fusion
TTITLE10=Celtic Frost
TTITLE11=New Age Krautrock Symphony Part 4 (handshaking with Jimi)
EXTD=
EXTT0=
EXTT1=
EXTT2=
EXTT3=
EXTT4=
EXTT5=
EXTT6=
EXTT7=
EXTT8=
EXTT9=
EXTT10=
EXTT11=
PLAYORDER=
